<svg width="83" height="80" viewBox="0 0 83 80" fill="none" xmlns="http://www.w3.org/2000/svg">
<path d="M62.605 67.1667C65.0298 67.1665 67.1188 66.2979 68.8449 64.5747L62.605 67.1667ZM62.605 67.1667C62.6048 67.1667 62.6045 67.1667 62.6042 67.1667V66.6667L62.6066 67.1667C62.6061 67.1667 62.6056 67.1667 62.605 67.1667ZM7.83333 66.6667V67.1667H8.33333H34.3235C34.7879 68.5856 35.3127 69.9457 35.8982 71.2468C36.4065 72.3764 37.0046 73.4609 37.6922 74.5H0.5V0.5H74.5V31.0979C73.3812 30.6086 72.238 30.2028 71.0705 29.8805C69.7974 29.5291 68.4961 29.2526 67.1667 29.0508V8.33333V7.83333H66.6667H8.33333H7.83333V8.33333V45.8333V46.3333H8.33333H25.4783C26.1396 48.1446 27.1863 49.7319 28.6135 51.0912C30.0143 52.4253 31.5767 53.3942 33.299 53.9904C33.1217 55.2598 33.0014 56.5438 32.9381 57.8423C32.8789 59.0571 32.9184 60.2589 33.0567 61.4474C30.8726 60.9453 28.8144 60.0952 26.8802 58.8959C24.744 57.5713 22.8586 55.8917 21.2233 53.8537L21.0732 53.6667H20.8333H8.33333H7.83333V54.1667V66.6667ZM57.6778 72.8186L57.6256 72.5575L57.3798 72.4551C56.5584 72.1129 55.7895 71.7549 55.0727 71.3816C54.3677 71.0143 53.6434 70.5589 52.8999 70.0135L52.6967 69.8644L52.456 69.9391L46.7926 71.6967L43.0375 65.313L47.5156 61.419L47.7267 61.2354L47.6807 60.9595C47.5469 60.157 47.4792 59.282 47.4792 58.3333C47.4792 57.3846 47.5469 56.5097 47.6807 55.7072L47.7267 55.4313L47.5156 55.2477L43.0375 51.3537L46.7926 44.9699L52.456 46.7275L52.6955 46.8019L52.8983 46.6544C53.645 46.1113 54.3712 45.6569 55.0768 45.2893C55.7943 44.9155 56.5625 44.556 57.3817 44.2108L57.6258 44.1079L57.6778 43.8481L58.8474 38H66.3609L67.5305 43.8481L67.5828 44.1091L67.8285 44.2115C68.6495 44.5536 69.418 44.9127 70.1344 45.2886C70.8408 45.6593 71.5661 46.1141 72.3103 46.6546L72.5131 46.8018L72.7524 46.7275L78.4157 44.9699L82.1709 51.3537L77.6927 55.2477L77.4816 55.4313L77.5276 55.7072C77.6614 56.5097 77.7292 57.3846 77.7292 58.3333C77.7292 59.282 77.6614 60.157 77.5276 60.9595L77.4816 61.2354L77.6927 61.419L82.1709 65.313L78.4157 71.6967L72.7524 69.9391L72.5129 69.8648L72.3101 70.0123C71.5628 70.5558 70.8373 71.012 70.1337 71.3826C69.421 71.758 68.6534 72.1153 67.8304 72.4544L67.583 72.5563L67.5305 72.8186L66.3609 78.6667H58.8474L57.6778 72.8186Z" fill="white" stroke="white"/>
</svg>
